<svg width="150" height="45" viewBox="0 0 150 45" fill="none" xmlns="http://www.w3.org/2000/svg">
<rect width="44.858" height="44.858" rx="9.3626" fill="#1474FB"/>
<path d="M25.5086 19.3495C25.5086 16.4183 23.1324 14.0421 20.2012 14.0421H17.9859" stroke="white" stroke-width="1.29398" stroke-linecap="round" stroke-linejoin="round"/>
<path d="M29.2118 11.7023C29.2118 12.9945 28.1643 14.042 26.8721 14.042C25.5799 14.042 24.5324 12.9945 24.5324 11.7023C24.5324 10.4101 25.5799 9.3626 26.8721 9.3626C28.1643 9.3626 29.2118 10.4101 29.2118 11.7023Z" stroke="white" stroke-width="1.29398" stroke-miterlimit="10"/>
<path d="M35.4953 17.9858C35.4953 19.278 34.4478 20.3255 33.1556 20.3255C31.8635 20.3255 30.8159 19.278 30.8159 17.9858C30.8159 16.6936 31.8635 15.6461 33.1556 15.6461C34.4478 15.6461 35.4953 16.6936 35.4953 17.9858Z" stroke="white" stroke-width="1.29398" stroke-miterlimit="10"/>
<path d="M14.0419 17.9858C14.0419 19.278 12.9944 20.3255 11.7022 20.3255C10.4101 20.3255 9.36256 19.278 9.36256 17.9858C9.36256 16.6936 10.4101 15.6461 11.7022 15.6461C12.9944 15.6461 14.0419 16.6936 14.0419 17.9858Z" stroke="white" stroke-width="1.29398" stroke-miterlimit="10"/>
<path d="M14.0419 26.8721C14.0419 28.1643 12.9944 29.2118 11.7022 29.2118C10.4101 29.2118 9.36256 28.1643 9.36256 26.8721C9.36256 25.5799 10.4101 24.5324 11.7022 24.5324C12.9944 24.5324 14.0419 25.5799 14.0419 26.8721Z" stroke="white" stroke-width="1.29398" stroke-miterlimit="10"/>
<path d="M20.3255 33.1557C20.3255 34.4479 19.278 35.4954 17.9858 35.4954C16.6936 35.4954 15.6461 34.4479 15.6461 33.1557C15.6461 31.8635 16.6936 30.816 17.9858 30.816C19.278 30.816 20.3255 31.8635 20.3255 33.1557Z" stroke="white" stroke-width="1.29398" stroke-miterlimit="10"/>
<path d="M29.2118 33.1557C29.2118 34.4479 28.1643 35.4954 26.8721 35.4954C25.5799 35.4954 24.5324 34.4479 24.5324 33.1557C24.5324 31.8635 25.5799 30.816 26.8721 30.816C28.1643 30.816 29.2118 31.8635 29.2118 33.1557Z" stroke="white" stroke-width="1.29398" stroke-miterlimit="10"/>
<path d="M35.4953 26.8721C35.4953 28.1643 34.4478 29.2118 33.1556 29.2118C31.8635 29.2118 30.8159 28.1643 30.8159 26.8721C30.8159 25.5799 31.8635 24.5324 33.1556 24.5324C34.4478 24.5324 35.4953 25.5799 35.4953 26.8721Z" stroke="white" stroke-width="1.29398" stroke-miterlimit="10"/>
<path d="M20.3255 11.7023C20.3255 12.9945 19.278 14.042 17.9858 14.042C16.6936 14.042 15.6461 12.9945 15.6461 11.7023C15.6461 10.4101 16.6936 9.3626 17.9858 9.3626C19.278 9.3626 20.3255 10.4101 20.3255 11.7023Z" stroke="white" stroke-width="1.29398" stroke-miterlimit="10"/>
<path d="M22.429 18.0738C20.3562 16.001 16.9959 16.001 14.9231 18.0738L13.3567 19.6403" stroke="white" stroke-width="1.29398" stroke-linecap="round" stroke-linejoin="round"/>
<path d="M19.3494 19.3493C16.4182 19.3493 14.042 21.7255 14.042 24.6568V26.872" stroke="white" stroke-width="1.29398" stroke-linecap="round" stroke-linejoin="round"/>
<path d="M18.0738 22.4289C16.001 24.5017 16.001 27.862 18.0738 29.9348L19.6402 31.5012" stroke="white" stroke-width="1.29398" stroke-linecap="round" stroke-linejoin="round"/>
<path d="M19.3493 25.5085C19.3493 28.4398 21.7255 30.816 24.6567 30.816H26.872" stroke="white" stroke-width="1.29398" stroke-linecap="round" stroke-linejoin="round"/>
<path d="M22.4289 26.7842C24.5017 28.8569 27.862 28.8569 29.9348 26.7842L31.5012 25.2177" stroke="white" stroke-width="1.29398" stroke-linecap="round" stroke-linejoin="round"/>
<path d="M25.5084 25.5086C28.4397 25.5086 30.8159 23.1324 30.8159 20.2012V17.986" stroke="white" stroke-width="1.29398" stroke-linecap="round" stroke-linejoin="round"/>
<path d="M26.7841 22.429C28.8569 20.3562 28.8569 16.9959 26.7841 14.9231L25.2177 13.3567" stroke="white" stroke-width="1.29398" stroke-linecap="round" stroke-linejoin="round"/>
<path d="M29.2118 11.7023C29.2118 12.9945 28.1643 14.042 26.8721 14.042C25.5799 14.042 24.5324 12.9945 24.5324 11.7023C24.5324 10.4101 25.5799 9.3626 26.8721 9.3626C28.1643 9.3626 29.2118 10.4101 29.2118 11.7023Z" stroke="white" stroke-width="1.29398" stroke-miterlimit="10"/>
<path d="M35.4953 17.9858C35.4953 19.278 34.4478 20.3255 33.1556 20.3255C31.8635 20.3255 30.8159 19.278 30.8159 17.9858C30.8159 16.6936 31.8635 15.6461 33.1556 15.6461C34.4478 15.6461 35.4953 16.6936 35.4953 17.9858Z" stroke="white" stroke-width="1.29398" stroke-miterlimit="10"/>
<path d="M14.0419 17.9858C14.0419 19.278 12.9944 20.3255 11.7022 20.3255C10.4101 20.3255 9.36256 19.278 9.36256 17.9858C9.36256 16.6936 10.4101 15.6461 11.7022 15.6461C12.9944 15.6461 14.0419 16.6936 14.0419 17.9858Z" stroke="white" stroke-width="1.29398" stroke-miterlimit="10"/>
<path d="M14.0419 26.8721C14.0419 28.1643 12.9944 29.2118 11.7022 29.2118C10.4101 29.2118 9.36256 28.1643 9.36256 26.8721C9.36256 25.5799 10.4101 24.5324 11.7022 24.5324C12.9944 24.5324 14.0419 25.5799 14.0419 26.8721Z" stroke="white" stroke-width="1.29398" stroke-miterlimit="10"/>
<path d="M20.3255 33.1557C20.3255 34.4479 19.278 35.4954 17.9858 35.4954C16.6936 35.4954 15.6461 34.4479 15.6461 33.1557C15.6461 31.8635 16.6936 30.816 17.9858 30.816C19.278 30.816 20.3255 31.8635 20.3255 33.1557Z" stroke="white" stroke-width="1.29398" stroke-miterlimit="10"/>
<path d="M29.2118 33.1557C29.2118 34.4479 28.1643 35.4954 26.8721 35.4954C25.5799 35.4954 24.5324 34.4479 24.5324 33.1557C24.5324 31.8635 25.5799 30.816 26.8721 30.816C28.1643 30.816 29.2118 31.8635 29.2118 33.1557Z" stroke="white" stroke-width="1.29398" stroke-miterlimit="10"/>
<path d="M35.4953 26.8721C35.4953 28.1643 34.4478 29.2118 33.1556 29.2118C31.8635 29.2118 30.8159 28.1643 30.8159 26.8721C30.8159 25.5799 31.8635 24.5324 33.1556 24.5324C34.4478 24.5324 35.4953 25.5799 35.4953 26.8721Z" stroke="white" stroke-width="1.29398" stroke-miterlimit="10"/>
<path d="M20.3255 11.7023C20.3255 12.9945 19.278 14.042 17.9858 14.042C16.6936 14.042 15.6461 12.9945 15.6461 11.7023C15.6461 10.4101 16.6936 9.3626 17.9858 9.3626C19.278 9.3626 20.3255 10.4101 20.3255 11.7023Z" stroke="white" stroke-width="1.29398" stroke-miterlimit="10"/>
<path d="M66.1986 24.517L65.7578 20.5729L63.2289 24.517H66.1986ZM64.7137 14.1926H70.0963L72.5556 30.5493H66.7786L66.5002 28.3686H60.816L59.4007 30.5493H53.4845L64.7137 14.1926Z" fill="#231F20"/>
<path d="M81.6735 30.8741C79.3685 30.8741 77.621 30.36 76.4301 29.3313C75.239 28.3028 74.6436 26.8683 74.6436 25.0275C74.6436 24.1614 74.7596 23.2874 74.9916 22.4058L77.1725 14.3087H82.6943L80.4206 22.7538C80.2965 23.2489 80.235 23.6742 80.235 24.0299C80.235 24.7108 80.4241 25.221 80.8035 25.5611C81.1823 25.9015 81.7352 26.0715 82.4623 26.0715C83.1737 26.0715 83.7534 25.8474 84.2024 25.3985C84.4495 25.1514 84.6625 24.8535 84.8404 24.5055C85.0181 24.1575 85.1921 23.6668 85.3624 23.0322L87.7057 14.3087H93.2275L90.652 23.8675C90.0796 25.9869 89.2289 27.6109 88.1001 28.7396C87.3266 29.5132 86.3867 30.0621 85.2812 30.3867C84.1752 30.7117 82.9727 30.8741 81.6735 30.8741Z" fill="#231F20"/>
<path d="M97.7747 18.9024H92.9951L94.225 14.3086H109.213L107.983 18.9024H103.204L100.071 30.5493H94.6426L97.7747 18.9024Z" fill="#231F20"/>
<path d="M116.173 26.0946C116.668 26.0946 117.116 26.002 117.519 25.8164C117.921 25.6306 118.276 25.3835 118.586 25.074C119.003 24.6564 119.328 24.1573 119.56 23.5773C119.792 22.9973 119.908 22.4138 119.908 21.8259C119.908 21.3929 119.842 20.9904 119.711 20.6192C119.58 20.248 119.39 19.9232 119.143 19.6448C118.895 19.3664 118.582 19.1499 118.203 18.9951C117.824 18.8409 117.395 18.7631 116.915 18.7631C116.42 18.7631 115.972 18.8559 115.57 19.0418C115.167 19.2271 114.812 19.4749 114.503 19.784C114.085 20.2018 113.76 20.7004 113.528 21.2804C113.296 21.8604 113.18 22.4446 113.18 23.0321C113.18 23.4655 113.246 23.8673 113.377 24.2385C113.509 24.61 113.698 24.9346 113.946 25.213C114.193 25.4914 114.503 25.7083 114.874 25.8626C115.245 26.0176 115.678 26.0946 116.173 26.0946ZM117.287 13.9837C118.478 13.9837 119.568 14.1735 120.558 14.5522C121.548 14.9315 122.398 15.4496 123.11 16.1066C123.821 16.7644 124.374 17.5416 124.769 18.4383C125.163 19.3357 125.36 20.3025 125.36 21.3384C125.36 22.6379 125.109 23.8673 124.606 25.0274C124.104 26.1874 123.412 27.2085 122.53 28.0901C121.679 28.9409 120.682 29.6177 119.537 30.1202C118.392 30.6225 117.147 30.8742 115.802 30.8742C114.611 30.8742 113.52 30.6844 112.531 30.3056C111.54 29.9269 110.689 29.4089 109.979 28.7511C109.267 28.0938 108.714 27.3168 108.319 26.4194C107.925 25.5227 107.728 24.5557 107.728 23.5193C107.728 22.2201 107.979 20.9904 108.482 19.8304C108.984 18.6703 109.677 17.6497 110.559 16.7679C111.409 15.9175 112.407 15.2408 113.551 14.7378C114.696 14.2355 115.941 13.9837 117.287 13.9837Z" fill="#231F20"/>
<path d="M138.006 24.5863L136.544 16.2799L130.604 24.5863H138.006ZM136.15 14.1916H137.913L140.929 30.5491H139.05L138.307 26.2568H129.444L126.381 30.5491H124.363L136.15 14.1916Z" fill="#231F20"/>
<path d="M148.167 14.3077H150L145.638 30.5493H143.805L148.167 14.3077Z" fill="#231F20"/>
</svg>
