<svg width="45" height="45" viewBox="0 0 45 45" fill="none" xmlns="http://www.w3.org/2000/svg">
<rect width="44.858" height="44.858" rx="9.3626" fill="#1474FB"/>
<path d="M25.5086 19.3495C25.5086 16.4183 23.1324 14.0421 20.2012 14.0421H17.9859" stroke="white" stroke-width="1.29398" stroke-linecap="round" stroke-linejoin="round"/>
<path d="M29.2118 11.7023C29.2118 12.9945 28.1643 14.042 26.8721 14.042C25.5799 14.042 24.5324 12.9945 24.5324 11.7023C24.5324 10.4101 25.5799 9.3626 26.8721 9.3626C28.1643 9.3626 29.2118 10.4101 29.2118 11.7023Z" stroke="white" stroke-width="1.29398" stroke-miterlimit="10"/>
<path d="M35.4953 17.9858C35.4953 19.278 34.4478 20.3255 33.1556 20.3255C31.8635 20.3255 30.8159 19.278 30.8159 17.9858C30.8159 16.6936 31.8635 15.6461 33.1556 15.6461C34.4478 15.6461 35.4953 16.6936 35.4953 17.9858Z" stroke="white" stroke-width="1.29398" stroke-miterlimit="10"/>
<path d="M14.0419 17.9858C14.0419 19.278 12.9944 20.3255 11.7022 20.3255C10.4101 20.3255 9.36256 19.278 9.36256 17.9858C9.36256 16.6936 10.4101 15.6461 11.7022 15.6461C12.9944 15.6461 14.0419 16.6936 14.0419 17.9858Z" stroke="white" stroke-width="1.29398" stroke-miterlimit="10"/>
<path d="M14.0419 26.8721C14.0419 28.1643 12.9944 29.2118 11.7022 29.2118C10.4101 29.2118 9.36256 28.1643 9.36256 26.8721C9.36256 25.5799 10.4101 24.5324 11.7022 24.5324C12.9944 24.5324 14.0419 25.5799 14.0419 26.8721Z" stroke="white" stroke-width="1.29398" stroke-miterlimit="10"/>
<path d="M20.3255 33.1557C20.3255 34.4479 19.278 35.4954 17.9858 35.4954C16.6936 35.4954 15.6461 34.4479 15.6461 33.1557C15.6461 31.8635 16.6936 30.816 17.9858 30.816C19.278 30.816 20.3255 31.8635 20.3255 33.1557Z" stroke="white" stroke-width="1.29398" stroke-miterlimit="10"/>
<path d="M29.2118 33.1557C29.2118 34.4479 28.1643 35.4954 26.8721 35.4954C25.5799 35.4954 24.5324 34.4479 24.5324 33.1557C24.5324 31.8635 25.5799 30.816 26.8721 30.816C28.1643 30.816 29.2118 31.8635 29.2118 33.1557Z" stroke="white" stroke-width="1.29398" stroke-miterlimit="10"/>
<path d="M35.4953 26.8721C35.4953 28.1643 34.4478 29.2118 33.1556 29.2118C31.8635 29.2118 30.8159 28.1643 30.8159 26.8721C30.8159 25.5799 31.8635 24.5324 33.1556 24.5324C34.4478 24.5324 35.4953 25.5799 35.4953 26.8721Z" stroke="white" stroke-width="1.29398" stroke-miterlimit="10"/>
<path d="M20.3255 11.7023C20.3255 12.9945 19.278 14.042 17.9858 14.042C16.6936 14.042 15.6461 12.9945 15.6461 11.7023C15.6461 10.4101 16.6936 9.3626 17.9858 9.3626C19.278 9.3626 20.3255 10.4101 20.3255 11.7023Z" stroke="white" stroke-width="1.29398" stroke-miterlimit="10"/>
<path d="M22.429 18.0738C20.3562 16.001 16.9959 16.001 14.9231 18.0738L13.3567 19.6403" stroke="white" stroke-width="1.29398" stroke-linecap="round" stroke-linejoin="round"/>
<path d="M19.3494 19.3493C16.4182 19.3493 14.042 21.7255 14.042 24.6568V26.872" stroke="white" stroke-width="1.29398" stroke-linecap="round" stroke-linejoin="round"/>
<path d="M18.0738 22.4289C16.001 24.5017 16.001 27.862 18.0738 29.9348L19.6402 31.5012" stroke="white" stroke-width="1.29398" stroke-linecap="round" stroke-linejoin="round"/>
<path d="M19.3493 25.5085C19.3493 28.4398 21.7255 30.816 24.6567 30.816H26.872" stroke="white" stroke-width="1.29398" stroke-linecap="round" stroke-linejoin="round"/>
<path d="M22.4289 26.7842C24.5017 28.8569 27.862 28.8569 29.9348 26.7842L31.5012 25.2177" stroke="white" stroke-width="1.29398" stroke-linecap="round" stroke-linejoin="round"/>
<path d="M25.5084 25.5086C28.4397 25.5086 30.8159 23.1324 30.8159 20.2012V17.986" stroke="white" stroke-width="1.29398" stroke-linecap="round" stroke-linejoin="round"/>
<path d="M26.7841 22.429C28.8569 20.3562 28.8569 16.9959 26.7841 14.9231L25.2177 13.3567" stroke="white" stroke-width="1.29398" stroke-linecap="round" stroke-linejoin="round"/>
<path d="M29.2118 11.7023C29.2118 12.9945 28.1643 14.042 26.8721 14.042C25.5799 14.042 24.5324 12.9945 24.5324 11.7023C24.5324 10.4101 25.5799 9.3626 26.8721 9.3626C28.1643 9.3626 29.2118 10.4101 29.2118 11.7023Z" stroke="white" stroke-width="1.29398" stroke-miterlimit="10"/>
<path d="M35.4953 17.9858C35.4953 19.278 34.4478 20.3255 33.1556 20.3255C31.8635 20.3255 30.8159 19.278 30.8159 17.9858C30.8159 16.6936 31.8635 15.6461 33.1556 15.6461C34.4478 15.6461 35.4953 16.6936 35.4953 17.9858Z" stroke="white" stroke-width="1.29398" stroke-miterlimit="10"/>
<path d="M14.0419 17.9858C14.0419 19.278 12.9944 20.3255 11.7022 20.3255C10.4101 20.3255 9.36256 19.278 9.36256 17.9858C9.36256 16.6936 10.4101 15.6461 11.7022 15.6461C12.9944 15.6461 14.0419 16.6936 14.0419 17.9858Z" stroke="white" stroke-width="1.29398" stroke-miterlimit="10"/>
<path d="M14.0419 26.8721C14.0419 28.1643 12.9944 29.2118 11.7022 29.2118C10.4101 29.2118 9.36256 28.1643 9.36256 26.8721C9.36256 25.5799 10.4101 24.5324 11.7022 24.5324C12.9944 24.5324 14.0419 25.5799 14.0419 26.8721Z" stroke="white" stroke-width="1.29398" stroke-miterlimit="10"/>
<path d="M20.3255 33.1557C20.3255 34.4479 19.278 35.4954 17.9858 35.4954C16.6936 35.4954 15.6461 34.4479 15.6461 33.1557C15.6461 31.8635 16.6936 30.816 17.9858 30.816C19.278 30.816 20.3255 31.8635 20.3255 33.1557Z" stroke="white" stroke-width="1.29398" stroke-miterlimit="10"/>
<path d="M29.2118 33.1557C29.2118 34.4479 28.1643 35.4954 26.8721 35.4954C25.5799 35.4954 24.5324 34.4479 24.5324 33.1557C24.5324 31.8635 25.5799 30.816 26.8721 30.816C28.1643 30.816 29.2118 31.8635 29.2118 33.1557Z" stroke="white" stroke-width="1.29398" stroke-miterlimit="10"/>
<path d="M35.4953 26.8721C35.4953 28.1643 34.4478 29.2118 33.1556 29.2118C31.8635 29.2118 30.8159 28.1643 30.8159 26.8721C30.8159 25.5799 31.8635 24.5324 33.1556 24.5324C34.4478 24.5324 35.4953 25.5799 35.4953 26.8721Z" stroke="white" stroke-width="1.29398" stroke-miterlimit="10"/>
<path d="M20.3255 11.7023C20.3255 12.9945 19.278 14.042 17.9858 14.042C16.6936 14.042 15.6461 12.9945 15.6461 11.7023C15.6461 10.4101 16.6936 9.3626 17.9858 9.3626C19.278 9.3626 20.3255 10.4101 20.3255 11.7023Z" stroke="white" stroke-width="1.29398" stroke-miterlimit="10"/>
</svg>
