<svg width="16" height="16" viewBox="0 0 16 16" fill="none" xmlns="http://www.w3.org/2000/svg">
<g clip-path="url(#clip0_4589_11662)">
<path d="M13.0208 6.27605H12.8084L11.9931 4.64546C11.6057 3.87055 10.6237 3.26355 9.75725 3.26355H5.23853C4.37216 3.26355 3.39009 3.87055 3.00278 4.64539L2.18738 6.27605H1.72394C0.773375 6.27605 0 7.04939 0 7.99999V9.50627C0 10.4568 0.773375 11.2302 1.72394 11.2302H2.31612C2.52716 12.0936 3.30697 12.7364 4.23447 12.7364C5.16194 12.7364 5.94169 12.0936 6.15272 11.2302H9.84741C10.0584 12.0936 10.8382 12.7364 11.7657 12.7364C12.6932 12.7364 13.4729 12.0936 13.684 11.2302H14.276C15.2267 11.2302 16 10.4568 16 9.50627V9.25517C16 7.61249 14.6635 6.27605 13.0208 6.27605ZM11.1545 5.06468L11.7603 6.27605H7.96675V4.20105H9.75725C10.2716 4.20105 10.9246 4.60458 11.1545 5.06468ZM3.84134 5.06461C4.07128 4.60458 4.72419 4.20105 5.23853 4.20105H7.02925V6.27605H3.23556L3.84134 5.06461ZM4.23447 11.7989C3.66238 11.7989 3.19697 11.3335 3.19697 10.7615C3.19697 10.1894 3.66241 9.72392 4.23447 9.72392C4.80603 9.72392 5.27106 10.1886 5.27184 10.76C5.27184 10.7605 5.27178 10.761 5.27178 10.7615C5.27178 10.7619 5.27184 10.7624 5.27184 10.7629C5.27106 11.3343 4.80603 11.7989 4.23447 11.7989ZM11.7657 11.7989C11.1936 11.7989 10.7282 11.3335 10.7282 10.7615C10.7282 10.1894 11.1937 9.72392 11.7657 9.72392C12.3377 9.72392 12.8031 10.1894 12.8031 10.7615C12.8031 11.3335 12.3377 11.7989 11.7657 11.7989ZM15.0625 9.50627C15.0625 9.93989 14.7097 10.2927 14.276 10.2927H13.6839C13.4729 9.42927 12.6932 8.78642 11.7657 8.78642C10.8382 8.78642 10.0584 9.42927 9.84737 10.2927H6.15269C5.94169 9.42927 5.16191 8.78642 4.23444 8.78642C3.30694 8.78642 2.52712 9.42927 2.31609 10.2927H1.72391C1.29031 10.2927 0.9375 9.93992 0.9375 9.50627V7.99999C0.9375 7.56636 1.29031 7.21355 1.72394 7.21355H12.516C12.517 7.21355 12.518 7.21364 12.5191 7.21364C12.5197 7.21364 12.5203 7.21355 12.521 7.21355H13.0208C13.7954 7.21355 14.4706 7.64714 14.8165 8.28436H14.7781C14.5192 8.28436 14.3094 8.49424 14.3094 8.75311C14.3094 9.01199 14.5192 9.22186 14.7781 9.22186H15.0616C15.0618 9.23299 15.0625 9.24402 15.0625 9.25517V9.50627H15.0625Z" fill="black"/>
<path d="M8.25096 8.28442H7.7489C7.49003 8.28442 7.28015 8.4943 7.28015 8.75317C7.28015 9.01205 7.49003 9.22192 7.7489 9.22192H8.25096C8.50984 9.22192 8.71971 9.01205 8.71971 8.75317C8.71971 8.49427 8.50984 8.28442 8.25096 8.28442Z" fill="black"/>
</g>
<defs>
<clipPath id="clip0_4589_11662">
<rect width="16" height="16" fill="white"/>
</clipPath>
</defs>
</svg>
