<svg width="16" height="16" viewBox="0 0 16 16" fill="none" xmlns="http://www.w3.org/2000/svg">
<path d="M7.32791 9.87006C7.99804 9.42393 8.50681 8.77398 8.77898 8.01634C9.05115 7.25869 9.07227 6.43357 8.83923 5.663C8.60619 4.89242 8.13135 4.21729 7.48493 3.73745C6.83851 3.25761 6.05483 2.99854 5.24979 2.99854C4.44474 2.99854 3.66106 3.25761 3.01464 3.73745C2.36823 4.21729 1.89339 4.89242 1.66034 5.663C1.4273 6.43357 1.44843 7.25869 1.7206 8.01634C1.99277 8.77398 2.50154 9.42393 3.17166 9.87006C1.95947 10.3168 0.924228 11.1436 0.220412 12.2269C0.183422 12.2819 0.157728 12.3437 0.144825 12.4087C0.131922 12.4737 0.132066 12.5406 0.14525 12.6055C0.158434 12.6705 0.184394 12.7321 0.221621 12.787C0.258848 12.8418 0.3066 12.8886 0.362101 12.9248C0.417602 12.961 0.479745 12.9858 0.544917 12.9978C0.610089 13.0098 0.676991 13.0087 0.741734 12.9946C0.806477 12.9805 0.867769 12.9536 0.922048 12.9156C0.976327 12.8776 1.02251 12.8292 1.05791 12.7732C1.51191 12.0749 2.13313 11.5011 2.86519 11.1039C3.59724 10.7067 4.41691 10.4987 5.24979 10.4987C6.08266 10.4987 6.90234 10.7067 7.63439 11.1039C8.36644 11.5011 8.98767 12.0749 9.44166 12.7732C9.515 12.8822 9.62828 12.9579 9.75702 12.9841C9.88577 13.0102 10.0196 12.9846 10.1297 12.9129C10.2397 12.8411 10.3171 12.7289 10.345 12.6005C10.373 12.4722 10.3493 12.338 10.2792 12.2269C9.57535 11.1436 8.5401 10.3168 7.32791 9.87006ZM2.49979 6.75006C2.49979 6.20616 2.66107 5.67447 2.96325 5.22224C3.26542 4.77 3.69491 4.41753 4.19741 4.20939C4.6999 4.00125 5.25284 3.94679 5.78629 4.0529C6.31973 4.15901 6.80974 4.42092 7.19433 4.80551C7.57893 5.19011 7.84084 5.68011 7.94695 6.21356C8.05306 6.74701 7.9986 7.29994 7.79046 7.80244C7.58231 8.30493 7.22984 8.73442 6.77761 9.0366C6.32537 9.33877 5.79369 9.50006 5.24979 9.50006C4.5207 9.49923 3.8217 9.20923 3.30616 8.69369C2.79061 8.17814 2.50061 7.47915 2.49979 6.75006ZM15.6335 12.9188C15.5225 12.9912 15.3872 13.0166 15.2574 12.9893C15.1277 12.962 15.0141 12.8842 14.9417 12.7732C14.4882 12.0745 13.8671 11.5005 13.1349 11.1034C12.4027 10.7064 11.5827 10.4989 10.7498 10.5001C10.6172 10.5001 10.49 10.4474 10.3962 10.3536C10.3025 10.2598 10.2498 10.1327 10.2498 10.0001C10.2498 9.86745 10.3025 9.74027 10.3962 9.6465C10.49 9.55273 10.6172 9.50006 10.7498 9.50006C11.1548 9.49967 11.5547 9.40985 11.9209 9.237C12.2872 9.06416 12.6107 8.81255 12.8684 8.50017C13.1262 8.18778 13.3117 7.82233 13.4118 7.42992C13.512 7.03751 13.5242 6.62783 13.4476 6.23015C13.371 5.83247 13.2076 5.45661 12.9689 5.12943C12.7303 4.80225 12.4223 4.53181 12.067 4.33745C11.7117 4.14309 11.3178 4.02961 10.9136 4.0051C10.5094 3.98059 10.1047 4.04567 9.72854 4.19568C9.6672 4.2222 9.60118 4.23615 9.53436 4.23671C9.46754 4.23728 9.40129 4.22444 9.33952 4.19897C9.27775 4.1735 9.22171 4.1359 9.17471 4.0884C9.12771 4.0409 9.09071 3.98447 9.0659 3.92243C9.04108 3.86039 9.02895 3.794 9.03023 3.72719C9.0315 3.66039 9.04615 3.59451 9.07332 3.53346C9.10048 3.47242 9.13961 3.41743 9.18838 3.37176C9.23715 3.32609 9.29459 3.29066 9.35729 3.26756C10.2182 2.92421 11.1758 2.91186 12.0452 3.23287C12.9147 3.55389 13.6345 4.18553 14.0658 5.00594C14.497 5.82635 14.6092 6.77741 14.3806 7.67563C14.152 8.57385 13.5989 9.3556 12.8279 9.87006C14.0401 10.3168 15.0753 11.1436 15.7792 12.2269C15.8516 12.338 15.8769 12.4733 15.8496 12.603C15.8223 12.7328 15.7446 12.8464 15.6335 12.9188Z" fill="#718096"/>
</svg>
