<svg width="16" height="16" viewBox="0 0 16 16" fill="none" xmlns="http://www.w3.org/2000/svg">
<path d="M7.67205 1.11784L2.28429 6.02976C2.23343 6.07617 2.19276 6.13286 2.16492 6.19616C2.13708 6.25946 2.12268 6.32796 2.12266 6.39723V13.3714C2.12266 13.5027 2.17426 13.6287 2.26612 13.7216C2.35797 13.8145 2.48255 13.8666 2.61245 13.8666H4.08184V9.40936C4.08184 9.01532 4.23665 8.63741 4.51222 8.35877C4.78778 8.08014 5.16152 7.9236 5.55123 7.9236H10.4492C10.8389 7.9236 11.2126 8.08014 11.4882 8.35877C11.7638 8.63741 11.9186 9.01532 11.9186 9.40936V13.8666H13.388C13.5179 13.8666 13.6424 13.8145 13.7343 13.7216C13.8262 13.6287 13.8778 13.5027 13.8778 13.3714V6.39823C13.8779 6.32878 13.8635 6.26009 13.8357 6.19661C13.8078 6.13313 13.7671 6.07629 13.7161 6.02976L8.32837 1.11685C8.23837 1.03472 8.12144 0.989255 8.00021 0.989255C7.87897 0.989255 7.76205 1.03571 7.67205 1.11784ZM2.61245 14.8571C2.22275 14.8571 1.849 14.7006 1.57344 14.422C1.29788 14.1433 1.14307 13.7654 1.14307 13.3714V6.39823C1.14307 5.97726 1.31939 5.57611 1.62894 5.29381L7.0167 0.381896C7.28658 0.136051 7.63696 0 8.00021 0C8.36346 0 8.71384 0.136051 8.98372 0.381896L14.3715 5.2948C14.5241 5.43385 14.6462 5.60371 14.7299 5.79343C14.8136 5.98315 14.857 6.18851 14.8574 6.39625V13.3714C14.8574 13.7654 14.7025 14.1433 14.427 14.422C14.1514 14.7006 13.7777 14.8571 13.388 14.8571H2.61245ZM10.939 13.8666V11.8856H5.06143V13.8666H10.939ZM10.939 9.40936C10.939 9.27801 10.8874 9.15204 10.7955 9.05917C10.7037 8.96629 10.5791 8.91411 10.4492 8.91411H5.55123C5.42133 8.91411 5.29675 8.96629 5.20489 9.05917C5.11304 9.15204 5.06143 9.27801 5.06143 9.40936V10.8951H10.939V9.40936Z" fill="#718096"/>
</svg>
