<svg width="16" height="16" viewBox="0 0 16 16" fill="none" xmlns="http://www.w3.org/2000/svg">
<g clip-path="url(#clip0_4589_11660)">
<path d="M15.122 10.4001C14.9342 10.0748 14.6309 9.84209 14.2681 9.74484C13.9053 9.64774 13.5264 9.69752 13.201 9.88534L10.5973 11.3886C10.5981 11.1433 10.5345 10.9011 10.4086 10.683C10.2208 10.3577 9.91757 10.125 9.55479 10.0278L6.63095 9.24434C6.02613 9.08227 5.39457 9.16546 4.85248 9.47849L0.924259 11.7464C0.700072 11.8758 0.623259 12.1625 0.752697 12.3867L2.70351 15.7656C2.76567 15.8733 2.86804 15.9519 2.98813 15.9841C3.02804 15.9947 3.06882 16 3.10945 16C3.19104 16 3.27198 15.9787 3.34382 15.9372L5.11532 14.9144L8.90479 15.1588C9.36813 15.1886 9.82542 15.0817 10.2275 14.8496L14.6072 12.321C15.2788 11.9333 15.5097 11.0716 15.122 10.4001ZM14.1385 11.5091L9.75879 14.0378C9.51751 14.1771 9.24288 14.2412 8.96517 14.2233L5.03407 13.9698C4.9416 13.9639 4.8497 13.9853 4.76954 14.0316L3.28107 14.891L1.79901 12.324L5.32123 10.2904C5.64651 10.1026 6.02545 10.0527 6.38829 10.15L9.31213 10.9334C9.43304 10.9658 9.53413 11.0434 9.59673 11.1518C9.65932 11.2602 9.67595 11.3866 9.64354 11.5075C9.61117 11.6284 9.53357 11.7295 9.42517 11.7921C9.3167 11.8546 9.19038 11.8713 9.06948 11.8389L6.7797 11.2253C6.52954 11.1584 6.27257 11.3067 6.2056 11.5568C6.1386 11.8068 6.28698 12.0639 6.53704 12.1309L8.82682 12.7445C8.82698 12.7445 8.82717 12.7445 8.82732 12.7446L9.02507 12.7976C9.46851 12.9164 9.93173 12.8554 10.3293 12.6259L13.6698 10.6972C13.8936 10.568 14.1809 10.645 14.3101 10.8688C14.4393 11.0926 14.3624 11.3799 14.1385 11.5091Z" fill="black"/>
<path d="M4.87524 7.5H11.1252C11.3841 7.5 11.594 7.29012 11.594 7.03125C11.594 5.58797 10.7387 4.34091 9.5084 3.76975C9.92646 3.37109 10.1877 2.80941 10.1877 2.1875C10.1877 0.981281 9.20646 0 8.00024 0C6.79406 0 5.81274 0.981281 5.81274 2.1875C5.81274 2.80941 6.07406 3.37109 6.49209 3.76975C5.26181 4.34091 4.40649 5.588 4.40649 7.03125C4.40649 7.29012 4.61637 7.5 4.87524 7.5ZM6.75024 2.1875C6.75024 1.49825 7.31099 0.9375 8.00024 0.9375C8.68949 0.9375 9.25024 1.49825 9.25024 2.1875C9.25024 2.87675 8.68949 3.4375 8.00024 3.4375C7.31099 3.4375 6.75024 2.87675 6.75024 2.1875ZM8.00024 4.375C9.30496 4.375 10.393 5.32066 10.6151 6.5625H5.3854C5.60746 5.32066 6.69553 4.375 8.00024 4.375Z" fill="black"/>
</g>
<defs>
<clipPath id="clip0_4589_11660">
<rect width="16" height="16" fill="white"/>
</clipPath>
</defs>
</svg>
