<svg width="16" height="16" viewBox="0 0 16 16" fill="none" xmlns="http://www.w3.org/2000/svg">
<g clip-path="url(#clip0_4589_11658)">
<path d="M15.9458 12.338C15.828 11.713 15.524 11.1474 15.0668 10.7015C14.34 9.99337 13.3085 9.6934 12.3173 9.88681L9.5468 7.11631L13.2963 3.36652L13.7291 3.79931C13.9309 4.00118 14.2659 3.97743 14.4368 3.74712L15.9071 1.76752C16.0458 1.58096 16.0267 1.32099 15.8624 1.15662L14.8434 0.137619C14.679 -0.0267564 14.419 -0.0458189 14.2325 0.0929311L12.2529 1.56318C12.0229 1.73412 11.9988 2.06909 12.2007 2.27096L12.6335 2.70374L8.88371 6.45324L6.11605 3.68556C6.31449 2.68093 6.00261 1.63721 5.27018 0.904431C4.82427 0.458525 4.2618 0.163525 3.64371 0.0507124C3.0403 -0.0592876 2.42502 0.0103999 1.8638 0.252587C1.5604 0.383525 1.48383 0.780369 1.71786 1.01443L3.16715 2.46343L2.46346 3.16715L1.01449 1.71815C0.780426 1.48377 0.383583 1.56034 0.252645 1.86377C0.00795755 2.43124 -0.0607612 3.05309 0.0542075 3.66212C0.17202 4.28709 0.476051 4.85299 0.933208 5.29862C1.65974 6.00671 2.69155 6.30699 3.68274 6.11327L5.30046 7.73102C5.21358 7.75009 5.13296 7.79321 5.06889 7.85728L0.137676 12.7886C0.0498638 12.8764 0.000488801 12.9957 0.000488801 13.1198V14.1388C0.000488801 14.2632 0.0498638 14.3822 0.137676 14.4701L1.53008 15.8625C1.6179 15.9503 1.73696 15.9997 1.8613 15.9997H2.88033C3.0044 15.9997 3.12377 15.9503 3.21155 15.8625L8.14283 10.9311C8.20689 10.8671 8.25002 10.7865 8.26908 10.6996L9.88399 12.3148C9.68555 13.3191 9.99743 14.3631 10.7299 15.0956C11.1758 15.5415 11.7382 15.8368 12.3563 15.9493C12.9472 16.0571 13.5638 15.9943 14.1362 15.7475C14.4403 15.6162 14.5156 15.2194 14.2822 14.9856L12.8329 13.5366L13.5366 12.8329L14.9856 14.2819C15.2193 14.5156 15.6162 14.4403 15.7474 14.1363C15.9921 13.5688 16.0608 12.947 15.9458 12.338ZM14.4668 1.08662L14.9134 1.53346L14.0078 2.75246L13.2475 1.99221L14.4668 1.08662ZM2.68596 15.0622H2.05568L0.937926 13.9445V13.3142L1.3104 12.9414L3.05874 14.6897L2.68596 15.0622ZM7.34286 10.4052L3.72152 14.0266L1.97349 12.2786L5.59455 8.65753H6.22671L7.0304 9.46093L7.34318 9.77374L7.34286 10.4052ZM15.0577 13.0286L14.1859 12.1567C13.8269 11.7977 13.246 11.7977 12.8872 12.1567L12.1566 12.887C11.7986 13.2451 11.7986 13.8279 12.1566 14.186L13.0316 15.061C12.4326 15.095 11.8363 14.8766 11.3926 14.4329C10.8355 13.8754 10.628 13.0592 10.8514 12.3023C10.9001 12.1377 10.8548 11.9596 10.7333 11.8383C8.92436 10.0292 4.15989 5.26456 4.15989 5.26456C4.0399 5.14487 3.86305 5.09768 3.6968 5.14612C2.94871 5.36487 2.14033 5.16612 1.58755 4.62709C1.13821 4.18931 0.911645 3.57934 0.94227 2.97184L1.81408 3.84337C1.98752 4.01681 2.21811 4.1124 2.46343 4.1124C2.70874 4.1124 2.93933 4.01677 3.11277 3.84337L3.84336 3.11309C4.0168 2.93965 4.11243 2.70874 4.11243 2.46343C4.11243 2.21812 4.0168 1.98784 3.84336 1.81409L2.96843 0.939119C3.56714 0.904431 4.16368 1.12349 4.6074 1.56721C5.16455 2.12468 5.37205 2.9409 5.14861 3.69774C5.09986 3.86243 5.14518 4.04052 5.26674 4.16177L11.8401 10.7355C11.9614 10.8565 12.1388 10.9018 12.3032 10.854C13.0513 10.6352 13.8597 10.834 14.4125 11.373C14.8618 11.8108 15.0884 12.4208 15.0577 13.0286Z" fill="black"/>
</g>
<defs>
<clipPath id="clip0_4589_11658">
<rect width="16" height="16" fill="white"/>
</clipPath>
</defs>
</svg>
