<svg width="16" height="16" viewBox="0 0 16 16" fill="none" xmlns="http://www.w3.org/2000/svg">
<g clip-path="url(#clip0_4589_11663)">
<path d="M9.48307 14.75H3.33032C2.64107 14.75 2.08032 14.1892 2.08032 13.5V4.0625C2.08032 3.37325 2.64107 2.8125 3.33032 2.8125H5.2956V3.125C5.2956 4.15887 6.13673 5 7.1706 5C8.20448 5 9.0456 4.15887 9.0456 3.125V2.8125H11.0144C11.7036 2.8125 12.2644 3.37325 12.2644 4.0625V8.625C12.2644 8.97019 12.5442 9.25 12.8894 9.25C13.2345 9.25 13.5144 8.97019 13.5144 8.625V4.0625C13.5144 2.684 12.3929 1.5625 11.0144 1.5625H9.0456V0.625C9.0456 0.279813 8.76579 0 8.4206 0H5.9206C5.57542 0 5.2956 0.279813 5.2956 0.625V1.5625H3.33032C1.95182 1.5625 0.830322 2.684 0.830322 4.0625V13.5C0.830322 14.8785 1.95182 16 3.33032 16H9.4831C9.82829 16 10.1081 15.7202 10.1081 15.375C10.1081 15.0298 9.82826 14.75 9.48307 14.75ZM6.54557 1.25H7.79557V3.125C7.79557 3.46962 7.5152 3.75 7.17057 3.75C6.82595 3.75 6.54557 3.46962 6.54557 3.125V1.25ZM14.6219 12.7997L11.1982 9.36831C11.1254 9.29544 11.0359 9.24162 10.9374 9.21172L8.4772 8.46447C8.2591 8.39816 8.0222 8.45597 7.8591 8.61512C7.69595 8.77431 7.63238 9.00969 7.69323 9.22931L8.39204 11.752C8.42082 11.8558 8.47592 11.9504 8.55201 12.0267L11.9697 15.4508C12.3352 15.8163 12.8154 15.9991 13.2955 15.9991C13.7757 15.9991 14.2558 15.8163 14.6214 15.4508C15.3525 14.7197 15.3525 13.5302 14.6219 12.7997ZM9.20129 9.99078L10.424 10.3622L12.7342 12.6775L11.8501 13.5615L9.55285 11.2599L9.20129 9.99078ZM13.7375 14.5669C13.4939 14.8107 13.0974 14.8107 12.854 14.5674L12.7332 14.4463L13.6171 13.5624L13.7375 13.6831C13.9812 13.9267 13.9812 14.3232 13.7375 14.5669Z" fill="black"/>
</g>
<defs>
<clipPath id="clip0_4589_11663">
<rect width="16" height="16" fill="white"/>
</clipPath>
</defs>
</svg>
