<svg width="14" height="15" viewBox="0 0 14 15" fill="none" xmlns="http://www.w3.org/2000/svg">
<path fill-rule="evenodd" clip-rule="evenodd" d="M2 1C2 0.447715 2.44772 0 3 0H11C11.5523 0 12 0.447715 12 1V14H13.5C13.7761 14 14 14.2239 14 14.5C14 14.7761 13.7761 15 13.5 15H0.5C0.223858 15 0 14.7761 0 14.5C0 14.2239 0.223858 14 0.5 14H2V1ZM3 14H11V1H3V14Z" fill="#718096"/>
<path d="M8 8C8 8.55229 8.44771 9 9 9C9.55229 9 10 8.55229 10 8C10 7.44772 9.55229 7 9 7C8.44771 7 8 7.44772 8 8Z" fill="#718096"/>
</svg>
