<svg width="16" height="16" viewBox="0 0 16 16" fill="none" xmlns="http://www.w3.org/2000/svg">
<g clip-path="url(#clip0_4589_11661)">
<path d="M7.0625 2.8125H8.9375C9.19641 2.8125 9.40625 2.60266 9.40625 2.34375C9.40625 2.08484 9.19641 1.875 8.9375 1.875H7.0625C6.80359 1.875 6.59375 2.08484 6.59375 2.34375C6.59375 2.60266 6.80359 2.8125 7.0625 2.8125Z" fill="black"/>
<path d="M4.25 10.3438C2.44067 10.3438 0.96875 11.8157 0.96875 13.625V15.5312C0.96875 15.7902 1.17859 16 1.4375 16H14.5625C14.8214 16 15.0312 15.7902 15.0312 15.5312V13.625C15.0312 11.8157 13.5593 10.3438 11.75 10.3438H10.2428L10.0463 9.54077C10.9237 8.97961 11.5585 8.06323 11.7406 6.97083C12.1465 4.52563 12.0527 5.44092 12.1212 3.39099C12.1832 1.53748 10.7017 0 8.8418 0H7.16028C5.30591 0 3.81738 1.53308 3.88098 3.39343C3.95203 5.46997 3.87183 4.62903 4.2627 6.97083C4.44202 8.04675 5.08203 8.96216 5.95691 9.52771L5.7572 10.3438H4.25ZM14.0938 13.625V15.0625H1.90625V13.625C1.90625 12.3326 2.95764 11.2812 4.25 11.2812H5.03528C5.57336 12.415 6.72546 13.1562 8 13.1562C9.27454 13.1562 10.4266 12.415 10.9647 11.2812H11.75C13.0424 11.2812 14.0938 12.3326 14.0938 13.625ZM10.7909 4.68433C10.298 5.27136 9.56372 5.625 8.77124 5.625H7.23035C6.43872 5.625 5.70532 5.27222 5.21252 4.6864C5.52063 4.68628 10.4839 4.68445 10.7909 4.68433ZM7.16028 0.9375H8.8418C10.1656 0.9375 11.2288 2.03149 11.1842 3.35962L11.1713 3.75012C10.8237 3.75024 5.16162 3.75208 4.83118 3.7522L4.81799 3.36133C4.77271 2.0376 5.83081 0.9375 7.16028 0.9375ZM5.1875 6.81665L5.01721 5.79504C5.63513 6.2821 6.40955 6.5625 7.23047 6.5625H8.77136C9.5929 6.5625 10.3682 6.28149 10.9865 5.79346L10.8158 6.81665C10.5865 8.1925 9.40564 9.18762 8.02734 9.1991C6.6355 9.20996 5.41577 8.1864 5.1875 6.81665ZM8.00427 10.1367C8.01453 10.1367 8.0249 10.1367 8.03516 10.1366C8.43384 10.1333 8.81909 10.0684 9.18127 9.95032L9.41968 10.924C9.47107 11.1337 9.65906 11.2812 9.875 11.2812H9.87512C9.43994 11.8599 8.74963 12.2188 8 12.2188C7.25037 12.2188 6.56006 11.8599 6.12488 11.2812H6.125C6.34094 11.2812 6.52893 11.1337 6.58032 10.924L6.82043 9.94336C7.19556 10.0687 7.59412 10.1367 8.00427 10.1367Z" fill="black"/>
<path d="M10.8125 13.1562C10.5536 13.1562 10.3438 13.3661 10.3438 13.625C10.3438 13.8839 10.5536 14.0938 10.8125 14.0938H11.75C12.0089 14.0938 12.2188 13.8839 12.2188 13.625C12.2188 13.3661 12.0089 13.1562 11.75 13.1562H10.8125Z" fill="black"/>
</g>
<defs>
<clipPath id="clip0_4589_11661">
<rect width="16" height="16" fill="white"/>
</clipPath>
</defs>
</svg>
