<svg width="16" height="16" viewBox="0 0 16 16" fill="none" xmlns="http://www.w3.org/2000/svg">
<path d="M7.32816 9.87006C7.99828 9.42393 8.50705 8.77398 8.77922 8.01634C9.05139 7.25869 9.07252 6.43357 8.83947 5.663C8.60643 4.89242 8.13159 4.21729 7.48517 3.73745C6.83876 3.25761 6.05508 2.99854 5.25003 2.99854C4.44498 2.99854 3.66131 3.25761 3.01489 3.73745C2.36847 4.21729 1.89363 4.89242 1.66059 5.663C1.42754 6.43357 1.44867 7.25869 1.72084 8.01634C1.99301 8.77398 2.50178 9.42393 3.17191 9.87006C1.95971 10.3168 0.924472 11.1436 0.220656 12.2269C0.183666 12.2819 0.157972 12.3437 0.145069 12.4087C0.132166 12.4737 0.132311 12.5406 0.145494 12.6055C0.158678 12.6705 0.184638 12.7321 0.221865 12.787C0.259092 12.8418 0.306844 12.8886 0.362345 12.9248C0.417846 12.961 0.479989 12.9858 0.545161 12.9978C0.610334 13.0098 0.677236 13.0087 0.741979 12.9946C0.806721 12.9805 0.868014 12.9536 0.922292 12.9156C0.976571 12.8776 1.02275 12.8292 1.05816 12.7732C1.51215 12.0749 2.13338 11.5011 2.86543 11.1039C3.59748 10.7067 4.41716 10.4987 5.25003 10.4987C6.0829 10.4987 6.90258 10.7067 7.63463 11.1039C8.36668 11.5011 8.98791 12.0749 9.44191 12.7732C9.51524 12.8822 9.62852 12.9579 9.75727 12.9841C9.88601 13.0102 10.0199 12.9846 10.1299 12.9129C10.2399 12.8411 10.3173 12.7289 10.3453 12.6005C10.3733 12.4722 10.3496 12.338 10.2794 12.2269C9.57559 11.1436 8.54035 10.3168 7.32816 9.87006ZM2.50003 6.75006C2.50003 6.20616 2.66132 5.67447 2.96349 5.22224C3.26566 4.77 3.69515 4.41753 4.19765 4.20939C4.70015 4.00125 5.25308 3.94679 5.78653 4.0529C6.31998 4.15901 6.80998 4.42092 7.19457 4.80551C7.57917 5.19011 7.84108 5.68011 7.94719 6.21356C8.0533 6.74701 7.99884 7.29994 7.7907 7.80244C7.58256 8.30493 7.23008 8.73442 6.77785 9.0366C6.32561 9.33877 5.79393 9.50006 5.25003 9.50006C4.52094 9.49923 3.82195 9.20923 3.3064 8.69369C2.79085 8.17814 2.50086 7.47915 2.50003 6.75006ZM15.6338 12.9188C15.5227 12.9912 15.3874 13.0166 15.2577 12.9893C15.1279 12.962 15.0144 12.8842 14.9419 12.7732C14.4885 12.0745 13.8673 11.5005 13.1351 11.1034C12.4029 10.7064 11.583 10.4989 10.75 10.5001C10.6174 10.5001 10.4902 10.4474 10.3965 10.3536C10.3027 10.2598 10.25 10.1327 10.25 10.0001C10.25 9.86745 10.3027 9.74027 10.3965 9.6465C10.4902 9.55273 10.6174 9.50006 10.75 9.50006C11.155 9.49967 11.5549 9.40985 11.9212 9.237C12.2874 9.06416 12.6109 8.81255 12.8687 8.50017C13.1264 8.18778 13.312 7.82233 13.4121 7.42992C13.5122 7.03751 13.5244 6.62783 13.4478 6.23015C13.3713 5.83247 13.2078 5.45661 12.9692 5.12943C12.7305 4.80225 12.4225 4.53181 12.0672 4.33745C11.7119 4.14309 11.3181 4.02961 10.9139 4.0051C10.5096 3.98059 10.105 4.04567 9.72878 4.19568C9.66745 4.2222 9.60142 4.23615 9.53461 4.23671C9.46779 4.23728 9.40154 4.22444 9.33976 4.19897C9.27799 4.1735 9.22195 4.1359 9.17495 4.0884C9.12796 4.0409 9.09096 3.98447 9.06614 3.92243C9.04133 3.86039 9.0292 3.794 9.03047 3.72719C9.03174 3.66039 9.0464 3.59451 9.07356 3.53346C9.10073 3.47242 9.13985 3.41743 9.18862 3.37176C9.2374 3.32609 9.29483 3.29066 9.35753 3.26756C10.2184 2.92421 11.176 2.91186 12.0455 3.23287C12.915 3.55389 13.6348 4.18553 14.066 5.00594C14.4973 5.82635 14.6094 6.77741 14.3808 7.67563C14.1523 8.57385 13.5991 9.3556 12.8282 9.87006C14.0403 10.3168 15.0756 11.1436 15.7794 12.2269C15.8518 12.338 15.8772 12.4733 15.8499 12.603C15.8226 12.7328 15.7448 12.8464 15.6338 12.9188Z" fill="black"/>
</svg>
